# Blender v2.76 (sub 0) OBJ File: ''
# www.blender.org
mtllib sphere.mtl
o Sphere
v -0.963474 0.286103 -0.076504
v -0.940023 0.189101 -0.296236
v -0.996847 -0.099454 -0.099632
v -0.937321 -0.204554 -0.294363
v -0.876289 -0.482300 -0.117240
v -0.696524 -0.713904 -0.133898
v -0.797296 -0.468607 -0.398361
v -0.797301 0.468603 -0.398340
v -0.871804 0.085359 -0.501867
v -0.754177 -0.112815 -0.661491
v -0.561248 0.835872 -0.050950
v -0.312200 0.888591 -0.360226
v -0.599600 0.638980 -0.497467
v -0.767870 0.646498 -0.115982
v -0.591290 -0.638649 -0.507588
v -0.535176 -0.838967 -0.156362
v -0.217751 -0.846796 -0.508785
v -0.122263 -0.929501 -0.369892
v -0.611246 0.293144 -0.747509
v -0.371857 -0.925922 -0.107045
v -0.199800 -0.984596 -0.033359
v -0.189995 0.986960 0.057632
v -0.019339 0.999213 -0.121541
v -0.600481 -0.385198 -0.706038
v -0.465324 -0.107598 -0.888296
v -0.359459 -0.633246 -0.695534
v -0.382627 0.655359 -0.661394
v -0.161636 0.643229 -0.762392
v -0.309647 0.318407 -0.903394
v -0.284586 -0.385181 -0.882065
v -0.073816 0.894946 -0.459679
v -0.099037 -0.099051 -0.999702
v -0.065675 -0.643667 -0.773094
v -0.079320 0.196722 -0.981505
v 0.077433 0.481424 -0.883393
v 0.111179 -0.306799 -0.955466
v 0.142725 0.793184 -0.604860
v 0.255933 -0.557979 -0.793221
v 0.175117 -0.773414 -0.619246
v 0.268015 0.078945 -0.966868
v 0.411716 0.468317 -0.791628
v 0.071696 -0.984596 -0.189453
v 0.317354 -0.903055 -0.321058
v 0.302057 0.931471 -0.239490
v 0.446695 -0.300882 -0.852297
v 0.423935 0.840787 -0.355488
v 0.505556 0.655258 -0.573173
v 0.509491 0.115619 -0.861992
v 0.190267 0.982275 -0.072227
v 0.735648 0.292929 -0.625378
v 0.787408 0.000000 -0.623425
v 0.735649 -0.292915 -0.625378
v 0.500229 -0.643659 -0.593102
v 0.666451 -0.656823 -0.369753
v 0.689109 0.643678 -0.356541
v 0.952826 0.078942 -0.314314
v 0.946699 -0.189035 -0.280160
v 0.850225 -0.475428 -0.260907
v 0.636656 0.777725 -0.056766
v 0.871978 0.497895 -0.073112
v 0.882074 0.385210 -0.284548
v 0.388350 -0.924887 0.040548
v 0.113407 -0.999735 0.022557
v 0.999774 0.115624 -0.055276
v 0.947937 -0.299352 0.180045
v 0.885926 -0.473964 -0.002090
v 0.355562 0.927996 0.153822
v 0.624459 -0.783556 -0.119778
v 0.538912 -0.838084 0.147037
v 0.646452 0.722814 0.267750
v 0.851312 0.481424 0.248273
v 0.744332 -0.638970 0.230120
v 0.977101 0.098524 0.211716
v 0.490637 0.840775 0.255651
v 0.877871 0.098968 0.488178
v 0.869184 -0.197127 0.463463
v 0.095717 0.983075 0.179072
v 0.599621 -0.638963 0.497501
v 0.712446 0.452133 0.548843
v 0.252568 -0.899515 0.383285
v 0.726667 -0.385174 0.575338
v 0.629686 -0.107597 0.780447
v 0.480888 0.638675 0.613171
v 0.418461 -0.643634 0.649174
v 0.621115 0.189037 0.767426
v 0.451170 0.385168 0.809595
v 0.074510 0.929891 0.374563
v 0.177149 0.838087 0.529770
v 0.451180 -0.385212 0.809603
v 0.323139 -0.071077 0.951121
v 0.209615 -0.638666 0.750545
v 0.209667 0.638658 0.750534
v 0.194337 0.296060 0.946413
v 0.092935 -0.293135 0.961118
v -0.087549 -0.633232 0.778025
v -0.022033 -0.889648 0.476589
v -0.093536 0.638670 0.773626
v 0.000001 -0.984293 0.202360
v -0.097896 0.099050 0.999815
v -0.253468 0.385206 0.891508
v -0.271846 -0.300872 0.923067
v -0.159871 0.830948 0.536106
v -0.441189 -0.497086 0.755495
v -0.352054 -0.779290 0.537315
v -0.339645 0.651749 0.685940
v -0.481039 0.091051 0.883626
v -0.278716 0.925525 0.278719
v -0.321644 -0.928503 0.211080
v -0.624128 -0.197138 0.762075
v -0.466753 0.800965 0.399992
v -0.542269 0.491466 0.693976
v -0.685657 -0.475415 0.566420
v -0.746838 0.435071 0.525269
v -0.780447 0.107603 0.629681
v -0.884201 -0.099454 0.470972
v -0.591236 -0.779279 0.251147
v -0.835202 -0.492235 0.277567
v -0.742712 0.643826 0.218067
v -0.944679 0.299355 0.196420
v -0.944679 -0.299351 0.196421
v -0.997761 0.008210 0.108632
v -0.377944 0.928496 -0.071914
vt 0.822210 0.702222
vt 0.869756 0.729176
vt 0.824067 0.819493
vt 0.869528 0.850022
vt 0.837393 0.935925
vt 0.850945 0.999683
vt 0.897792 0.926685
vt 0.897794 0.645970
vt 0.919674 0.764412
vt 0.960923 0.822450
vt 0.502679 0.957287
vt 0.566231 0.891602
vt 0.596265 0.961536
vt 0.841482 0.582962
vt 0.934028 0.584559
vt 0.025848 0.810961
vt 0.035092 0.695050
vt 0.062442 0.810138
vt 0.120099 0.697085
vt 0.147128 0.744719
vt 0.975903 0.695489
vt 0.100686 0.826100
vt 0.146059 0.844608
vt 0.473242 0.844469
vt 0.506629 0.804991
vt 0.941084 0.954867
vt 0.979897 0.901726
vt 0.798085 0.003307
vt 0.797384 0.082471
vt 0.737898 0.065573
vt 0.078586 0.626959
vt 0.971498 0.039804
vt 0.973883 0.093178
vt 0.888412 0.044662
vt 0.969207 0.166232
vt 0.894816 0.124150
vt 0.700956 0.106247
vt 0.737647 0.140390
vt 0.587451 0.823237
vt 0.635666 0.898214
vt 0.803088 0.198587
vt 0.140636 0.591787
vt 0.867372 0.201119
vt 0.933229 0.244677
vt 0.701834 0.207303
vt 0.756822 0.266352
vt 0.625467 0.755159
vt 0.653659 0.818867
vt 0.212080 0.560593
vt 0.202575 0.639153
vt 0.690874 0.767004
vt 0.841536 0.303449
vt 0.936492 0.343465
vt 0.192663 0.795530
vt 0.240987 0.730656
vt 0.537594 0.711864
vt 0.705605 0.305435
vt 0.765369 0.362851
vt 0.571159 0.669332
vt 0.630894 0.640442
vt 0.682479 0.647073
vt 0.856723 0.378824
vt 0.498628 0.746504
vt 0.903003 0.431838
vt 0.839224 0.457712
vt 0.772109 0.429104
vt 0.271615 0.615211
vt 0.247060 0.525976
vt 0.317756 0.577147
vt 0.655918 0.566635
vt 0.314033 0.670898
vt 0.586545 0.581687
vt 0.518643 0.494919
vt 0.452335 0.472372
vt 0.495398 0.421397
vt 0.554904 0.405863
vt 0.584471 0.484419
vt 0.618003 0.387552
vt 0.643371 0.435149
vt 0.513344 0.597161
vt 0.533005 0.526361
vt 0.389871 0.409981
vt 0.397369 0.338539
vt 0.426169 0.407459
vt 0.268728 0.832430
vt 0.208870 0.846745
vt 0.480705 0.344802
vt 0.569907 0.269045
vt 0.614126 0.315533
vt 0.457639 0.687970
vt 0.672192 0.320131
vt 0.316302 0.757958
vt 0.306152 0.845802
vt 0.447412 0.581537
vt 0.480972 0.524186
vt 0.343430 0.823624
vt 0.399999 0.246582
vt 0.482066 0.272020
vt 0.441942 0.637506
vt 0.482359 0.179276
vt 0.546586 0.180046
vt 0.450749 0.768430
vt 0.700386 0.227449
vt 0.650234 0.234267
vt 0.649536 0.142968
vt 0.405128 0.150409
vt 0.251391 0.929608
vt 0.590114 0.132295
vt 0.526237 0.068278
vt 0.350438 0.225994
vt 0.365843 0.112852
vt 0.700477 0.134093
vt 0.652442 0.083521
vt 0.459719 0.072088
vt 0.419386 0.061884
vt 0.410216 0.765522
vt 0.383796 0.727460
vt 0.591626 0.054593
vt 0.386327 0.637842
vt 0.001749 0.286581
vt 0.042853 0.271837
vt 0.025206 0.373336
vt 0.292001 0.968396
vt 0.266965 0.993158
vt 0.040732 0.063276
vt 0.079423 0.060617
vt 0.025207 0.136289
vt 0.003362 0.194909
vt 0.073474 0.159580
vt 0.079638 0.449696
vt 0.092980 0.336482
vt 0.141788 0.444983
vt 0.138879 0.515943
vt 0.142721 0.054955
vt 0.192382 0.970900
vt 0.190738 0.894850
vt 0.131478 0.216863
vt 0.171270 0.127421
vt 0.174068 0.335789
vt 0.138446 0.000671
vt 0.174348 0.000000
vt 0.222149 0.401655
vt 0.215506 0.493645
vt 0.201018 0.051011
vt 0.219221 0.213009
vt 0.379159 0.828668
vt 0.430908 0.869494
vt 0.122690 0.912336
vt 0.259270 0.306912
vt 0.211443 0.000671
vt 0.244116 0.098567
vt 0.284648 0.396940
vt 0.262182 0.037384
vt 0.290412 0.110878
vt 0.299597 0.217429
vt 0.332840 0.283176
vt 0.129243 0.974470
vt 0.062450 0.920812
vt 0.326924 0.408055
vt 0.274241 0.496904
vt 0.715454 0.648065
vt 0.743651 0.553937
vt 0.771667 0.582719
vt 0.694177 0.746850
vt 0.765192 0.695803
vt 0.723782 0.783186
vt 0.346528 0.315754
vt 0.779009 0.787686
vt 0.765191 0.874163
vt 0.501477 0.907299
vt 0.787590 0.514816
vt 0.842511 0.518006
vt 0.752590 0.931389
vt 0.558507 0.991026
vt 0.000000 0.745336
vt 0.986732 0.951141
vt 0.604186 0.514816
vt 0.675683 0.373309
vt 0.041208 0.457027
vt 0.357582 0.710564
vt 0.522215 0.001005
vt 0.095180 0.518939
vt 0.349889 0.771055
vt 0.412081 0.922628
vt 0.778319 0.996202
vn -0.950200 0.301300 -0.079500
vn -0.938900 0.179500 -0.293700
vn -0.989100 -0.099300 -0.109000
vn -0.928200 -0.198600 -0.314700
vn -0.872000 -0.479900 -0.096500
vn -0.706500 -0.697900 -0.117500
vn -0.792100 -0.453100 -0.409000
vn -0.795500 0.452000 -0.403500
vn -0.861400 0.090600 -0.499800
vn -0.745100 -0.116600 -0.656700
vn -0.559900 0.827000 -0.050600
vn -0.331300 0.874100 -0.355200
vn -0.593800 0.642200 -0.484800
vn -0.766600 0.630900 -0.119400
vn -0.580100 -0.650200 -0.490600
vn -0.518200 -0.838100 -0.170300
vn -0.233600 -0.834400 -0.499200
vn -0.112600 -0.927500 -0.356600
vn -0.607700 0.288200 -0.740000
vn -0.378600 -0.917500 -0.122200
vn -0.189600 -0.981200 -0.035100
vn -0.186800 0.980700 0.057700
vn -0.031600 0.989300 -0.142200
vn -0.598600 -0.382000 -0.704100
vn -0.458600 -0.084400 -0.884600
vn -0.364100 -0.620700 -0.694400
vn -0.389500 0.645200 -0.657300
vn -0.155700 0.636700 -0.755300
vn -0.318500 0.306300 -0.897100
vn -0.277300 -0.383200 -0.881100
vn -0.065100 0.887900 -0.455400
vn -0.110200 -0.087300 -0.990100
vn -0.059700 -0.627400 -0.776400
vn -0.078000 0.191400 -0.978400
vn 0.092500 0.469800 -0.877900
vn 0.110300 -0.306000 -0.945600
vn 0.159000 0.777900 -0.607900
vn 0.258400 -0.550500 -0.793800
vn 0.171400 -0.781500 -0.600000
vn 0.255300 0.081500 -0.963400
vn 0.400900 0.462000 -0.791100
vn 0.077900 -0.976100 -0.203000
vn 0.317500 -0.890600 -0.325600
vn 0.294000 0.926100 -0.236400
vn 0.458500 -0.283700 -0.842200
vn 0.425700 0.829600 -0.361300
vn 0.497100 0.641000 -0.584700
vn 0.516700 0.102400 -0.850000
vn 0.201500 0.977700 -0.059700
vn 0.729700 0.303800 -0.612600
vn 0.780500 -0.011900 -0.625000
vn 0.725800 -0.292500 -0.622600
vn 0.501000 -0.631100 -0.592200
vn 0.658100 -0.649400 -0.381100
vn 0.693000 0.626400 -0.356800
vn 0.938300 0.083300 -0.335700
vn 0.943400 -0.192500 -0.270200
vn 0.842400 -0.466900 -0.269100
vn 0.632200 0.773000 -0.053100
vn 0.867600 0.494700 -0.051000
vn 0.876400 0.373100 -0.304600
vn 0.365200 -0.930500 0.028400
vn 0.131700 -0.991000 0.024000
vn 0.993200 0.109900 -0.038000
vn 0.942700 -0.283000 0.176900
vn 0.880200 -0.474500 -0.010700
vn 0.353300 0.924400 0.143900
vn 0.625100 -0.770600 -0.123800
vn 0.536300 -0.825400 0.176300
vn 0.660500 0.700400 0.270400
vn 0.852300 0.465600 0.238400
vn 0.749500 -0.619800 0.232500
vn 0.973000 0.101800 0.207000
vn 0.473900 0.835800 0.277200
vn 0.864800 0.107600 0.490400
vn 0.865000 -0.201100 0.459600
vn 0.081000 0.980500 0.178800
vn 0.595000 -0.637700 0.489200
vn 0.713800 0.441600 0.543600
vn 0.272100 -0.880500 0.388200
vn 0.725000 -0.390300 0.567500
vn 0.629300 -0.106600 0.769800
vn 0.481200 0.643400 0.595300
vn 0.421200 -0.644900 0.637700
vn 0.612700 0.184600 0.768500
vn 0.448700 0.372400 0.812400
vn 0.066000 0.928500 0.365300
vn 0.191200 0.827800 0.527400
vn 0.446600 -0.383600 0.808300
vn 0.319900 -0.053100 0.945900
vn 0.195300 -0.634700 0.747600
vn 0.199900 0.622800 0.756400
vn 0.188000 0.291000 0.938100
vn 0.086400 -0.293200 0.952100
vn -0.091800 -0.624200 0.775800
vn -0.029100 -0.871400 0.489700
vn -0.075800 0.622100 0.779300
vn -0.010400 -0.977800 0.209400
vn -0.096100 0.085500 0.991700
vn -0.243600 0.379600 0.892500
vn -0.265400 -0.283900 0.921400
vn -0.152300 0.829800 0.536900
vn -0.433400 -0.500200 0.749600
vn -0.356400 -0.765400 0.535900
vn -0.343600 0.650400 0.677400
vn -0.477400 0.095600 0.873500
vn -0.276300 0.922200 0.270500
vn -0.323100 -0.921500 0.215600
vn -0.622500 -0.195600 0.757800
vn -0.483200 0.783700 0.390400
vn -0.547300 0.464600 0.696200
vn -0.684700 -0.472900 0.554500
vn -0.742900 0.423100 0.518800
vn -0.769300 0.126700 0.626200
vn -0.881000 -0.098600 0.462800
vn -0.598400 -0.762800 0.245300
vn -0.816300 -0.507500 0.275900
vn -0.738500 0.636900 0.221400
vn -0.927900 0.301400 0.219300
vn -0.938300 -0.286500 0.193800
vn -0.990500 0.015800 0.136400
vn -0.360900 0.929700 -0.073000
usemtl None
s 1
f 1/1/1 2/2/2 3/3/3
f 3/3/3 4/4/4 5/5/5
f 6/6/6 5/5/5 7/7/7
f 1/1/1 8/8/8 2/2/2
f 3/3/3 9/9/9 4/4/4
f 4/4/4 10/10/10 7/7/7
f 11/11/11 12/12/12 13/13/13
f 8/8/8 14/14/14 13/15/13
f 6/16/6 15/17/15 16/18/16
f 16/18/16 17/19/17 18/20/18
f 9/9/9 8/8/8 19/21/19
f 20/22/20 18/20/18 21/23/21
f 9/9/9 19/21/19 10/10/10
f 22/24/22 23/25/23 12/12/12
f 15/26/15 7/7/7 24/27/24
f 10/28/10 25/29/25 24/30/24
f 15/17/15 26/31/26 17/19/17
f 13/32/13 27/33/27 19/34/19
f 27/33/27 28/35/28 29/36/29
f 19/34/19 29/36/29 25/29/25
f 26/37/26 24/30/24 30/38/30
f 12/12/12 31/39/31 27/40/27
f 25/29/25 32/41/32 30/38/30
f 17/19/17 26/31/26 33/42/33
f 29/36/29 34/43/34 32/41/32
f 34/43/34 29/36/29 35/44/35
f 33/45/33 30/38/30 36/46/36
f 31/39/31 37/47/37 28/48/28
f 33/42/33 38/49/38 39/50/39
f 28/48/28 37/47/37 35/51/35
f 17/19/17 39/50/39 18/20/18
f 32/41/32 40/52/40 36/46/36
f 40/52/40 35/44/35 41/53/41
f 42/54/42 18/20/18 43/55/43
f 31/39/31 44/56/44 37/47/37
f 38/57/38 36/46/36 45/58/45
f 37/47/37 46/59/46 47/60/47
f 41/61/41 37/47/37 47/60/47
f 45/58/45 40/52/40 48/62/48
f 23/25/23 49/63/49 44/56/44
f 48/62/48 41/53/41 50/64/50
f 48/62/48 51/65/51 52/66/52
f 53/67/53 45/68/45 52/69/52
f 41/61/41 47/60/47 50/70/50
f 53/67/53 54/71/54 43/55/43
f 47/60/47 55/72/55 50/70/50
f 51/73/51 50/74/50 56/75/56
f 51/73/51 56/75/56 57/76/57
f 52/77/52 57/76/57 58/78/58
f 54/79/54 52/77/52 58/78/58
f 55/72/55 46/59/46 59/80/59
f 55/72/55 59/80/59 60/81/60
f 55/82/55 60/83/60 61/84/61
f 43/55/43 62/85/62 63/86/63
f 57/76/57 56/75/56 64/87/64
f 57/76/57 65/88/65 66/89/66
f 44/56/44 67/90/67 59/80/59
f 58/78/58 66/89/66 68/91/68
f 62/85/62 68/92/68 69/93/69
f 64/87/64 61/84/61 60/83/60
f 59/80/59 70/94/70 71/95/71
f 69/93/69 68/92/68 72/96/72
f 64/87/64 60/83/60 71/97/71
f 64/87/64 73/98/73 65/88/65
f 59/80/59 74/99/74 70/94/70
f 73/98/73 75/100/75 76/101/76
f 49/63/49 77/102/77 67/90/67
f 69/103/69 72/104/72 78/105/78
f 75/100/75 71/97/71 79/106/79
f 62/85/62 80/107/80 63/86/63
f 72/104/72 65/88/65 81/108/81
f 76/101/76 82/109/82 81/108/81
f 79/106/79 70/110/70 83/111/83
f 80/112/80 78/105/78 84/113/84
f 85/114/85 79/106/79 86/115/86
f 67/90/67 87/116/87 88/117/88
f 78/105/78 81/108/81 89/118/89
f 83/119/83 74/99/74 88/117/88
f 82/120/82 90/121/90 89/122/89
f 84/123/84 91/124/91 80/107/80
f 83/125/83 92/126/92 86/127/86
f 85/128/85 93/129/93 90/121/90
f 91/130/91 89/122/89 94/131/94
f 91/130/91 95/132/95 96/133/96
f 92/126/92 97/134/97 93/129/93
f 80/107/80 96/135/96 98/136/98
f 94/131/94 90/121/90 99/137/99
f 99/137/99 93/129/93 100/138/100
f 95/132/95 94/131/94 101/139/101
f 97/134/97 88/140/88 102/141/102
f 95/132/95 103/142/103 104/143/104
f 96/133/96 95/132/95 104/143/104
f 97/134/97 105/144/105 100/138/100
f 101/139/101 99/137/99 106/145/106
f 87/116/87 77/102/77 22/24/22
f 102/146/102 87/116/87 107/147/107
f 96/135/96 108/148/108 98/136/98
f 101/139/101 109/149/109 103/142/103
f 102/141/102 110/150/110 105/144/105
f 106/145/106 100/138/100 111/151/111
f 103/142/103 112/152/112 104/143/104
f 111/151/111 105/144/105 110/153/110
f 106/145/106 111/151/111 113/154/113
f 106/145/106 114/155/114 109/149/109
f 109/149/109 115/156/115 112/152/112
f 104/157/104 116/158/116 108/148/108
f 112/152/112 117/159/117 116/160/116
f 113/161/113 110/162/110 118/163/118
f 114/164/114 119/165/119 115/166/115
f 115/156/115 120/167/120 117/159/117
f 115/166/115 121/168/121 120/169/120
f 107/147/107 122/170/122 11/11/11
f 118/163/118 110/171/110 11/172/11
f 63/86/63 21/23/21 42/54/42
f 49/63/49 23/25/23 77/102/77
f 77/102/77 23/25/23 22/24/22
f 63/86/63 98/136/98 21/23/21
f 116/158/116 6/16/6 16/18/16
f 119/165/119 118/163/118 14/14/14
f 116/158/116 16/18/16 20/22/20
f 108/148/108 20/22/20 21/23/21
f 121/168/121 119/165/119 1/1/1
f 117/173/117 5/5/5 6/6/6
f 119/165/119 14/14/14 1/1/1
f 121/168/121 1/1/1 3/3/3
f 120/169/120 3/3/3 5/5/5
f 1/1/1 14/14/14 8/8/8
f 3/3/3 2/2/2 9/9/9
f 7/7/7 5/5/5 4/4/4
f 4/4/4 9/9/9 10/10/10
f 11/11/11 122/170/122 12/12/12
f 14/174/14 11/11/11 13/13/13
f 6/16/6 7/175/7 15/17/15
f 2/2/2 8/8/8 9/9/9
f 16/18/16 15/17/15 17/19/17
f 8/8/8 13/15/13 19/21/19
f 20/22/20 16/18/16 18/20/18
f 122/170/122 22/24/22 12/12/12
f 7/7/7 10/10/10 24/27/24
f 26/176/26 15/26/15 24/27/24
f 13/13/13 12/12/12 27/40/27
f 25/29/25 10/28/10 19/34/19
f 19/34/19 27/33/27 29/36/29
f 21/23/21 18/20/18 42/54/42
f 24/30/24 25/29/25 30/38/30
f 12/12/12 23/25/23 31/39/31
f 33/45/33 26/37/26 30/38/30
f 27/40/27 31/39/31 28/48/28
f 25/29/25 29/36/29 32/41/32
f 29/36/29 28/35/28 35/44/35
f 30/38/30 32/41/32 36/46/36
f 38/57/38 33/45/33 36/46/36
f 17/19/17 33/42/33 39/50/39
f 40/52/40 34/43/34 35/44/35
f 32/41/32 34/43/34 40/52/40
f 18/20/18 39/50/39 43/55/43
f 48/62/48 40/52/40 41/53/41
f 45/58/45 36/46/36 40/52/40
f 31/39/31 23/25/23 44/56/44
f 41/61/41 35/51/35 37/47/37
f 37/47/37 44/56/44 46/59/46
f 53/67/53 38/49/38 45/68/45
f 39/50/39 38/49/38 53/67/53
f 43/55/43 39/50/39 53/67/53
f 51/65/51 48/62/48 50/64/50
f 45/58/45 48/62/48 52/66/52
f 54/71/54 53/67/53 52/69/52
f 47/60/47 46/59/46 55/72/55
f 52/77/52 51/73/51 57/76/57
f 43/55/43 54/71/54 68/92/68
f 50/70/50 55/72/55 61/177/61
f 56/75/56 50/74/50 61/84/61
f 54/178/54 58/78/58 68/91/68
f 43/55/43 68/92/68 62/85/62
f 64/87/64 56/75/56 61/84/61
f 42/54/42 43/55/43 63/86/63
f 46/59/46 44/56/44 59/80/59
f 65/88/65 57/76/57 64/87/64
f 44/56/44 49/63/49 67/90/67
f 58/78/58 57/76/57 66/89/66
f 68/91/68 66/89/66 72/104/72
f 60/81/60 59/80/59 71/95/71
f 73/98/73 64/87/64 71/97/71
f 59/80/59 67/90/67 74/99/74
f 72/104/72 66/89/66 65/88/65
f 65/88/65 73/98/73 76/101/76
f 75/100/75 73/98/73 71/97/71
f 79/106/79 71/97/71 70/110/70
f 80/107/80 62/85/62 69/93/69
f 65/88/65 76/101/76 81/108/81
f 78/105/78 72/104/72 81/108/81
f 76/101/76 75/100/75 82/109/82
f 83/119/83 70/94/70 74/99/74
f 69/103/69 78/105/78 80/112/80
f 85/114/85 75/100/75 79/106/79
f 98/136/98 63/86/63 80/107/80
f 82/109/82 75/100/75 85/114/85
f 79/106/79 83/111/83 86/115/86
f 67/90/67 77/102/77 87/116/87
f 81/108/81 82/109/82 89/118/89
f 74/99/74 67/90/67 88/117/88
f 84/113/84 78/105/78 89/118/89
f 91/130/91 84/179/84 89/122/89
f 92/180/92 83/119/83 88/117/88
f 93/129/93 85/128/85 86/127/86
f 82/109/82 85/114/85 90/181/90
f 89/122/89 90/121/90 94/131/94
f 80/182/80 91/130/91 96/133/96
f 86/127/86 92/126/92 93/129/93
f 95/132/95 91/130/91 94/131/94
f 97/183/97 92/180/92 88/117/88
f 90/121/90 93/129/93 99/137/99
f 101/139/101 94/131/94 99/137/99
f 88/117/88 87/116/87 102/146/102
f 93/129/93 97/134/97 100/138/100
f 103/142/103 95/132/95 101/139/101
f 105/144/105 97/134/97 102/141/102
f 106/145/106 99/137/99 100/138/100
f 107/147/107 87/116/87 22/24/22
f 101/139/101 106/145/106 109/149/109
f 102/146/102 107/147/107 110/184/110
f 100/138/100 105/144/105 111/151/111
f 108/148/108 96/135/96 104/157/104
f 114/155/114 106/145/106 113/154/113
f 103/142/103 109/149/109 112/152/112
f 109/149/109 114/155/114 115/156/115
f 104/143/104 112/152/112 116/160/116
f 113/154/113 111/151/111 110/153/110
f 98/136/98 108/148/108 21/23/21
f 119/165/119 114/164/114 113/161/113
f 112/152/112 115/156/115 117/159/117
f 107/147/107 22/24/22 122/170/122
f 110/184/110 107/147/107 11/11/11
f 113/161/113 118/163/118 119/165/119
f 115/166/115 119/165/119 121/168/121
f 108/148/108 116/158/116 20/22/20
f 120/169/120 121/168/121 3/3/3
f 117/173/117 120/169/120 5/5/5
f 14/14/14 118/163/118 11/172/11
f 116/185/116 117/173/117 6/6/6
